<svg width="24" height="24" viewBox="0 0 24 24" fill="none" xmlns="http://www.w3.org/2000/svg">
<path d="M5.8906 18.0197H7.05423M16.3633 13.3652H19.2724C20.5577 13.3652 21.5997 14.4071 21.5997 15.6924V19.1833C21.5997 20.4687 20.5577 21.5106 19.2724 21.5106H7.05423M11.127 6.74812L14.7041 3.17102C15.6129 2.26217 17.0865 2.26217 17.9953 3.17102L20.4638 5.63947C21.3726 6.54832 21.3726 8.02187 20.4638 8.93073L10.5451 18.8493M4.72696 21.5106H8.21787C9.50319 21.5106 10.5451 20.4687 10.5451 19.1833V5.21971C10.5451 3.93439 9.50319 2.89244 8.21787 2.89244H4.72696C3.44164 2.89244 2.39969 3.93439 2.39969 5.21971V19.1833C2.39969 20.4687 3.44164 21.5106 4.72696 21.5106Z" stroke="black" stroke-width="2" stroke-linecap="round" stroke-linejoin="round"/>
</svg>
