<svg width="24" height="24" viewBox="0 0 24 24" fill="none" xmlns="http://www.w3.org/2000/svg">
<path d="M8.8 2.39999H4.53333C3.35513 2.39999 2.4 3.35512 2.4 4.53333V8.79999M8.8 21.6H4.53333C3.35513 21.6 2.4 20.6449 2.4 19.4667V15.2M15.2 2.39999H19.4667C20.6449 2.39999 21.6 3.35512 21.6 4.53333V8.79999M21.6 15.2V19.4667C21.6 20.6449 20.6449 21.6 19.4667 21.6H15.2M7.8 9.16523V7.99523M16.2 9.16523V7.99523M8.65266 15.6002C10.0208 16.6602 13.0889 16.6602 15.0007 15.6002M11.4 12.6752L11.6485 12.4329C11.8736 12.2135 12 11.9159 12 11.6056V8.58023" stroke="black" stroke-width="2" stroke-linecap="round"/>
</svg>
