<svg width="24" height="24" viewBox="0 0 24 24" fill="none" xmlns="http://www.w3.org/2000/svg">
<path d="M9.06658 20.17C9.61887 20.17 10.0666 19.7223 10.0666 19.17C10.0666 18.6178 9.61887 18.17 9.06658 18.17V20.17ZM4.26717 15.9702L3.26717 15.9702L4.26717 15.9702ZM5.26658 2.39996C5.26656 1.84767 4.81883 1.39998 4.26654 1.4C3.71426 1.40003 3.26656 1.84776 3.26658 2.40004L5.26658 2.39996ZM9.06658 8.31687C9.61887 8.31687 10.0666 7.86916 10.0666 7.31687C10.0666 6.76459 9.61887 6.31687 9.06658 6.31687V8.31687ZM18.6666 9.86667L18.6666 8.86667L18.6666 9.86667ZM13.8666 9.86665L13.8666 10.8666H13.8666L13.8666 9.86665ZM19.7334 2.4L20.7334 2.40002C20.7334 2.1348 20.6281 1.88044 20.4405 1.6929C20.253 1.50536 19.9986 1.4 19.7334 1.4V2.4ZM19.7333 8.80003L20.7333 8.80005V8.80005L19.7333 8.80003ZM12.7999 8.79997L11.7999 8.79997V8.79997L12.7999 8.79997ZM12.8 4.53334L12.1356 3.78593C11.9221 3.9757 11.8 4.24769 11.8 4.53333L12.8 4.53334ZM15.1999 2.4V1.4C14.955 1.4 14.7186 1.48988 14.5356 1.6526L15.1999 2.4ZM18.6666 21.6L18.6666 20.6L18.6666 21.6ZM13.8666 21.6L13.8666 22.6L13.8666 21.6ZM19.7334 14.1333L20.7334 14.1334C20.7334 13.8681 20.6281 13.6138 20.4405 13.4262C20.253 13.2387 19.9986 13.1333 19.7334 13.1333V14.1333ZM19.7333 20.5334L20.7333 20.5334V20.5334L19.7333 20.5334ZM12.7999 20.5333L11.7999 20.5333V20.5333L12.7999 20.5333ZM12.8 16.2667L12.1356 15.5193C11.9221 15.709 11.8 15.981 11.8 16.2667L12.8 16.2667ZM15.1999 14.1333V13.1333C14.955 13.1333 14.7186 13.2232 14.5356 13.3859L15.1999 14.1333ZM9.06658 18.17H7.46716V20.17H9.06658V18.17ZM5.26717 15.9701L5.2668 7.31683L3.2668 7.31691L3.26717 15.9702L5.26717 15.9701ZM5.2668 7.31683L5.26658 2.39996L3.26658 2.40004L3.2668 7.31691L5.2668 7.31683ZM9.06658 6.31687H4.2668V8.31687H9.06658V6.31687ZM7.46716 18.17C6.25218 18.17 5.26722 17.1851 5.26717 15.9701L3.26717 15.9702C3.26727 18.2897 5.14764 20.17 7.46716 20.17V18.17ZM18.6666 8.86667L13.8666 8.86665L13.8666 10.8666L18.6666 10.8667L18.6666 8.86667ZM18.7334 2.39998L18.7333 8.8L20.7333 8.80005L20.7334 2.40002L18.7334 2.39998ZM18.6666 10.8667C19.808 10.8667 20.7332 9.94142 20.7333 8.80005L18.7333 8.8C18.7333 8.83682 18.7034 8.86667 18.6666 8.86667L18.6666 10.8667ZM11.7999 8.79997C11.7999 9.94136 12.7252 10.8666 13.8666 10.8666L13.8666 8.86665C13.8298 8.86665 13.7999 8.8368 13.7999 8.79998L11.7999 8.79997ZM13.7999 8.79998L13.8 4.53334L11.8 4.53333L11.7999 8.79997L13.7999 8.79998ZM15.1999 3.4H19.7334V1.4H15.1999V3.4ZM14.5356 1.6526L12.1356 3.78593L13.4643 5.28074L15.8643 3.14741L14.5356 1.6526ZM18.6666 20.6L13.8666 20.6L13.8666 22.6L18.6666 22.6L18.6666 20.6ZM18.7334 14.1333L18.7333 20.5333L20.7333 20.5334L20.7334 14.1334L18.7334 14.1333ZM18.6666 22.6C19.808 22.6 20.7332 21.6748 20.7333 20.5334L18.7333 20.5333C18.7333 20.5702 18.7034 20.6 18.6666 20.6L18.6666 22.6ZM11.7999 20.5333C11.7999 21.6747 12.7252 22.6 13.8666 22.6L13.8666 20.6C13.8298 20.6 13.7999 20.5701 13.7999 20.5333L11.7999 20.5333ZM13.7999 20.5333L13.8 16.2667L11.8 16.2667L11.7999 20.5333L13.7999 20.5333ZM15.1999 15.1333H19.7334V13.1333H15.1999V15.1333ZM14.5356 13.3859L12.1356 15.5193L13.4643 17.0141L15.8643 14.8807L14.5356 13.3859Z" fill="black"/>
</svg>
