<svg width="24" height="24" viewBox="0 0 24 24" fill="none" xmlns="http://www.w3.org/2000/svg">
<path d="M8.15809 6.50039C7.37407 7.13532 6.74121 7.94098 6.30649 8.85761C5.87176 9.77424 5.64633 10.7783 5.64692 11.7953C5.65005 14.2754 5.08722 16.7228 4.00241 18.946M13.3588 22.8C14.9615 19.3593 16.0156 13.3496 15.7791 11.7953C15.4865 9.87285 14.5653 8.33669 12.3437 8.33669C9.79799 8.33669 9.02228 10.9233 9.02228 12.0222M22.1751 18.3063C22.5896 16.1614 22.7988 13.9809 22.8 11.7953C22.8 8.98526 21.6983 6.29026 19.7373 4.30327C17.7763 2.31628 15.1166 1.2 12.3433 1.2C9.56999 1.2 6.91028 2.31628 4.94927 4.30327C2.98826 6.29026 1.88658 8.98519 1.88658 11.7952C1.88768 13.1888 1.65554 14.5725 1.20003 15.8873M6.56607 21.2387C7.62599 19.3958 8.37965 17.3889 8.79688 15.2982M18.8153 15.502C18.9671 14.2727 19.0421 13.0338 19.0396 11.795C19.0396 9.99556 18.3341 8.26985 17.0783 6.99746C15.8226 5.7251 14.1195 5.01016 12.3437 5.01016C12.0639 5.00821 11.7844 5.02441 11.5067 5.05864M18.1192 19.2073C17.9423 19.8884 17.7416 20.5703 17.5295 21.2387M9.81196 22.2963C11.1457 19.8871 12.3488 15.8952 12.3488 11.8321" stroke="black" stroke-width="2" stroke-linecap="round" stroke-linejoin="round"/>
</svg>
