<svg width="24" height="24" viewBox="0 0 24 24" fill="none" xmlns="http://www.w3.org/2000/svg">
<path d="M16.5176 10.5H20.5333C21.1224 10.5 21.6 10.9776 21.6 11.5667V17.798V18.1C21.6 19.2046 20.7046 20.1 19.6 20.1H4.8M2.4 4.96666V18C2.4 19.1598 3.3402 20.1 4.5 20.1V20.1C5.6598 20.1 6.6 19.1598 6.6 18V11.5667C6.6 10.9776 7.07756 10.5 7.66667 10.5H19.4667V7.97843C19.4667 7.38932 18.9891 6.91176 18.4 6.91176H11.3725L9.7426 4.38797C9.54612 4.08375 9.20871 3.89999 8.84656 3.89999H3.46667C2.87756 3.89999 2.4 4.37756 2.4 4.96666Z" stroke="black" stroke-width="2" stroke-linecap="round" stroke-linejoin="round"/>
</svg>
