<svg width="24" height="24" viewBox="0 0 24 24" fill="none" xmlns="http://www.w3.org/2000/svg">
<path d="M18.8567 20.2001C19.409 20.2001 19.8567 19.7524 19.8567 19.2001C19.8567 18.6478 19.409 18.2001 18.8567 18.2001V20.2001ZM5.14273 18.2001C4.59045 18.2001 4.14273 18.6478 4.14273 19.2001C4.14273 19.7524 4.59045 20.2001 5.14273 20.2001V18.2001ZM2.39994 13.9019C1.84766 13.9019 1.39994 14.3496 1.39994 14.9019C1.39994 15.4541 1.84766 15.9019 2.39994 15.9019V13.9019ZM21.5995 15.9019C22.1518 15.9019 22.5995 15.4541 22.5995 14.9019C22.5995 14.3496 22.1518 13.9019 21.5995 13.9019V15.9019ZM4.24518 12.0483C4.70471 12.3546 5.32558 12.2305 5.63193 11.7709C5.93828 11.3114 5.81411 10.6905 5.35458 10.3842L4.24518 12.0483ZM3.29749 9.01279C2.83796 8.70644 2.21709 8.83061 1.91074 9.29014C1.60439 9.74967 1.72856 10.3705 2.18809 10.6769L3.29749 9.01279ZM8.10337 7.45956C8.34816 7.95464 8.94793 8.15754 9.44301 7.91275C9.93808 7.66796 10.141 7.06819 9.89619 6.57311L8.10337 7.45956ZM8.80039 4.3569C8.55561 3.86183 7.95583 3.65893 7.46076 3.90372C6.96568 4.14851 6.76279 4.74828 7.00757 5.24336L8.80039 4.3569ZM13.7907 6.30227C13.4843 6.7618 13.6085 7.38267 14.068 7.68902C14.5275 7.99538 15.1484 7.8712 15.4548 7.41167L13.7907 6.30227ZM16.8262 5.35458C17.1325 4.89505 17.0083 4.27418 16.5488 3.96783C16.0893 3.66148 15.4684 3.78565 15.1621 4.24518L16.8262 5.35458ZM21.8021 10.7413C22.2972 10.4965 22.5001 9.89669 22.2553 9.40161C22.0105 8.90654 21.4107 8.70364 20.9157 8.94843L21.8021 10.7413ZM18.6995 10.0442C18.2044 10.289 18.0015 10.8888 18.2463 11.3839C18.4911 11.8789 19.0908 12.0818 19.5859 11.837L18.6995 10.0442ZM18.8567 18.2001H5.14273V20.2001H18.8567V18.2001ZM2.39994 15.9019H21.5995V13.9019H2.39994V15.9019ZM8.19982 14.9019C8.19982 12.8032 9.90109 11.102 11.9997 11.102V9.10198C8.79652 9.10198 6.19982 11.6987 6.19982 14.9019H8.19982ZM11.9997 11.102C14.0983 11.102 15.7996 12.8032 15.7996 14.9019H17.7996C17.7996 11.6987 15.2029 9.10198 11.9997 9.10198V11.102ZM5.35458 10.3842L3.29749 9.01279L2.18809 10.6769L4.24518 12.0483L5.35458 10.3842ZM9.89619 6.57311L8.80039 4.3569L7.00757 5.24336L8.10337 7.45956L9.89619 6.57311ZM15.4548 7.41167L16.8262 5.35458L15.1621 4.24518L13.7907 6.30227L15.4548 7.41167ZM20.9157 8.94843L18.6995 10.0442L19.5859 11.837L21.8021 10.7413L20.9157 8.94843Z" fill="black"/>
</svg>
