<svg width="24" height="24" viewBox="0 0 24 24" fill="none" xmlns="http://www.w3.org/2000/svg">
<path d="M5.89091 18.0197H7.05455M16.3636 13.3652H19.2727C20.558 13.3652 21.6 14.4071 21.6 15.6924V19.1833C21.6 20.4687 20.558 21.5106 19.2727 21.5106H7.05455M11.1273 6.74812L14.7044 3.17102C15.6132 2.26217 17.0868 2.26217 17.9956 3.17102L20.4641 5.63947C21.3729 6.54832 21.3729 8.02187 20.4641 8.93073L10.5455 18.8493M4.72727 21.5106H8.21818C9.5035 21.5106 10.5455 20.4687 10.5455 19.1833V5.21971C10.5455 3.93439 9.5035 2.89244 8.21818 2.89244H4.72727C3.44196 2.89244 2.4 3.93439 2.4 5.21971V19.1833C2.4 20.4687 3.44196 21.5106 4.72727 21.5106Z" stroke="black" stroke-width="2" stroke-linecap="round" stroke-linejoin="round"/>
</svg>
